<?xml version="1.0" encoding="UTF-8" standalone="no"?>
<!DOCTYPE svg PUBLIC "-//W3C//DTD SVG 1.1//EN" "http://www.w3.org/Graphics/SVG/1.1/DTD/svg11.dtd">
<svg width="100%" height="100%" viewBox="0 0 1170 142" version="1.1" xmlns="http://www.w3.org/2000/svg" xmlns:xlink="http://www.w3.org/1999/xlink" xml:space="preserve" xmlns:serif="http://www.serif.com/" style="fill-rule:evenodd;clip-rule:evenodd;stroke-linejoin:round;stroke-miterlimit:2;">
    <path d="M142,0.7C142.4,0.7 142.7,0.7 143.1,0.7C146.2,0.6 149.4,0.5 152.5,0.5C154.6,0.4 156.7,0.4 158.9,0.3C173.6,-0.3 173.6,-0.3 176.5,2.3C177.7,3.9 178.5,5.6 179.1,7.4C180.1,9.6 181.5,11.4 183,13.3C183.5,14.2 184.2,15 184.7,15.9C185.2,16.6 185.2,16.6 185.7,17.3C192.3,26.8 198.8,36.3 205.3,45.9C205.6,46.4 205.9,46.8 206.2,47.3C206.8,48.2 207.4,49 207.9,49.9C208.2,50.2 208.5,50.7 208.7,51C208.9,51.4 209.2,51.7 209.4,52C210.1,53.1 210.8,54 211.6,55C213.4,54.3 214.6,53.3 216,51.9C217.4,50.4 218.8,49 220.4,47.7C222.3,46.2 224,44.5 225.8,42.8C227.4,41.1 229.1,39.5 230.9,38C233.3,36 235.5,33.8 237.7,31.7C239.2,30.1 240.8,28.7 242.5,27.2C244.7,25.4 246.8,23.4 248.8,21.4C251.2,19 253.6,16.7 256.3,14.5C257.5,13.4 258.7,12.3 259.8,11.2C261.6,9.3 263.5,7.6 265.6,5.9C266.6,5 266.6,5 267.5,4C269,2.1 270.1,1 272.6,0.5C274.9,0.4 277.1,0.5 279.4,0.5L281.9,0.5C284,0.5 286.2,0.6 288.4,0.6C290.6,0.7 292.8,0.7 295,0.7C299.3,0.7 303.7,0.8 308,0.9C308,1.3 307.9,1.6 307.8,1.9C307.3,4.2 306.9,6.5 306.4,8.8C305.3,14.3 304.1,19.8 302.7,25.3C300.6,33.8 298.7,42.3 296.9,50.9C296.8,51.5 296.7,52 296.5,52.6C296.3,53.7 296.1,54.7 295.9,55.8C295.2,58.8 294.5,61.8 293.7,64.8C293.2,66.8 292.7,68.8 292.3,70.9C292.2,71.3 292.1,71.7 292,72.1C291.8,73 291.6,73.8 291.4,74.7C290.9,76.9 290.4,79.2 289.8,81.5C289.7,82 289.6,82.4 289.5,82.9C288.7,86.4 287.9,89.8 287.1,93.3C285.2,101 283.4,108.8 281.7,116.5C280.5,121.4 279.4,126.3 278.3,131.2C278.1,131.7 278,132.4 277.8,133C277.7,133.5 277.6,134 277.5,134.7C277.2,135.6 277,136.6 276.8,137.6C276.1,140.7 276.1,140.7 275.5,141.3C274.5,141.3 273.4,141.3 272.3,141.3L270.3,141.3C269.5,141.3 268.8,141.3 268,141.3L241.5,141.3C241.4,138.9 241.4,136.8 242.1,134.6C242.2,133.8 242.2,133.8 242.4,133.1C242.5,132.6 242.7,132.1 242.8,131.6C244.1,126.6 245.3,121.6 246.4,116.5C247.7,110.9 249,105.3 250.3,99.7C252.2,92.1 253.8,84.5 255.5,76.9C256.5,72.1 257.7,67.4 258.9,62.6C259.9,58.8 260.7,54.8 261.4,51C258.3,53.5 255.5,56.1 252.7,58.9C250.6,61 248.5,63.1 246.2,64.9C243.8,67 241.6,69.1 239.4,71.4C236.8,73.9 234.2,76.4 231.4,78.7C230.1,79.8 228.9,81.1 227.6,82.3C226,83.9 224.5,85.4 222.7,86.8C220.6,88.5 218.7,90.4 216.9,92.3C214.7,94.4 212.5,96.5 210.1,98.5C209.2,99.3 208.3,100.1 207.4,101C207.2,101.2 206.8,101.5 206.6,101.8C206,102.3 205.5,102.9 204.9,103.5C202.6,105.9 202.6,105.9 200.6,106.1C197.4,101.8 194.4,97.4 191.5,93.1C189.9,90.7 188.3,88.3 186.7,85.9C184.2,82.1 181.8,78.4 179.2,74.6C177.2,71.6 175.2,68.5 173.1,65.5C172.4,64.5 171.8,63.5 171.1,62.5C169.9,60.7 168.7,58.8 167.4,57C166.9,56.2 166.4,55.4 165.8,54.6C165.6,54.2 165.3,53.9 165.1,53.5C163.4,51.1 163.4,51.1 163.4,49.9L162.4,49.9C162.4,50.2 162.3,50.5 162.3,50.8C162,54.7 161.1,58.5 160.2,62.3C160,63 159.8,63.7 159.6,64.4C159.3,65.7 159,67.1 158.7,68.5C158.1,70.9 157.5,73.2 156.9,75.6C156.8,76.1 156.7,76.5 156.7,76.9C156,79.6 155.4,82.2 154.8,84.9C154.3,87.1 153.8,89.2 153.3,91.4C153.2,91.8 153.1,92.2 153,92.7C151.5,99 150.1,105.4 148.5,111.6C146.7,118.9 145.1,126.3 143.5,133.6C143.3,134.2 143.3,134.2 143.1,134.9C143,135.7 142.8,136.5 142.6,137.4C142,140.1 142,140.1 141.4,141.3L107.4,141.3C106.8,139 107.2,137.5 107.7,135.3C107.8,134.9 107.9,134.4 108,134.1C108.2,133.2 108.4,132.4 108.6,131.5C109.1,129.2 109.7,127 110.2,124.8C110.4,124.3 110.5,123.8 110.6,123.4C111.6,119.1 112.6,114.8 113.5,110.5C115,103.8 116.4,97 118,90.4C118.4,88.7 118.7,87 119.1,85.4C120.2,80.6 121.3,75.7 122.5,70.9C122.6,70.5 122.7,70.2 122.8,69.8C122.9,69.1 123.1,68.4 123.3,67.7C125,60.8 126.5,53.8 128,46.8C129.5,40.1 131,33.5 132.6,26.8C134.2,20 135.7,13.2 137.2,6.5C137.3,5.8 137.4,5.1 137.6,4.5C137.7,3.9 137.9,3.3 138,2.7C138.5,0.3 139.7,0.8 142,0.7Z" style="fill:rgb(244,244,245);fill-rule:nonzero;stroke:rgb(244,244,245);stroke-width:1px;"/>
    <path d="M323.6,1.4L331.4,1.4C334.4,1.3 337.4,1.3 340.5,1.3L358.2,1.3C363.9,1.3 369.5,1.3 375.1,1.3C379.5,1.2 383.8,1.2 388.2,1.2L406.1,1.2C414.3,1.1 421.5,2.5 429.1,6C429.7,6.4 429.7,6.4 430.5,6.7C434.7,8.7 437.8,11.5 441.1,14.7C441.5,15.1 441.8,15.4 442.3,15.9C451.4,25.2 453.5,37.4 453.3,49.9C452.8,62.9 447.2,75.4 437.9,84.7C431,91 421.8,96 412.3,96.8C413.6,99.9 415.3,102.6 417.3,105.2C419.9,108.8 422.5,112.6 425.1,116.3C426.3,118.1 427.6,120 428.8,121.8C429.1,122.2 429.3,122.6 429.6,122.9C432,126.5 434.6,130.1 437.1,133.7C437.5,134.3 438,135 438.5,135.6C438.7,136 439.1,136.4 439.3,136.9C439.6,137.3 439.9,137.7 440.2,138.1C440.5,138.5 440.7,138.9 441,139.3C441.6,140.2 441.6,140.2 441.6,141.2C435.5,141.4 429.4,141.4 423.3,141.5C420.5,141.5 417.7,141.5 414.9,141.6C412.1,141.6 409.4,141.7 406.7,141.7C405.6,141.7 404.6,141.7 403.6,141.7C395.5,142 395.5,142 393.1,140.4C392.1,139.2 391.5,138 390.8,136.6C390.2,135.9 389.7,135.1 389.1,134.3C388.6,133.4 388,132.6 387.4,131.7C387.1,131.3 386.8,130.8 386.5,130.4C385.8,129.4 385.1,128.4 384.5,127.5C382.8,124.9 381.1,122.4 379.4,119.9C379.1,119.4 378.8,118.9 378.4,118.4C375.7,114.4 373,110.4 370.3,106.5C369.9,105.9 369.5,105.4 369.2,104.9C368.9,104.4 368.5,104 368.2,103.5C367.9,103.1 367.7,102.7 367.4,102.4C366.7,101.4 366.7,101.4 365.7,100.9C364.7,100.9 363.7,100.9 362.7,100.9C362.1,100.8 361.5,100.8 360.9,100.8C358.1,100.8 355.3,100.8 352.5,100.8C351,100.8 349.5,100.8 348.1,100.7C346,100.7 343.8,100.7 341.7,100.7L339.7,100.7C336.2,100.6 336.2,100.6 333,102C332,103.7 331.6,105 331.2,106.8C331,107.5 330.9,108.1 330.8,108.8C330.7,109.1 330.6,109.5 330.6,109.9C330.2,111.7 329.8,113.5 329.4,115.4C329.3,115.7 329.3,116.1 329.1,116.5C328.3,120.8 327.2,125 326.1,129.3C325.9,129.8 325.7,130.4 325.6,130.9C325.5,131.4 325.3,131.9 325.2,132.5C324.6,134.8 324.1,137.2 323.5,139.5C323.2,140.7 323.2,140.7 322.7,141.2C321.6,141.3 320.5,141.3 319.4,141.3L318.4,141.3C317.2,141.3 316.1,141.3 314.9,141.3L300,141.3C295.9,141.3 291.7,141.3 287.6,141.2C287.6,138.8 287.7,136.7 288.3,134.4C288.5,133.4 288.5,133.4 288.8,132.5C288.9,131.8 289.1,131.2 289.2,130.5C289.5,129.5 289.8,128.4 290,127.4C290.2,126.7 290.4,126 290.5,125.3C291,123.3 291.5,121.3 292,119.3C295.6,102.6 301.9,85.5 317.1,75.5C318.6,74.6 320.1,73.7 321.7,72.9C322.1,72.6 322.5,72.3 323,72.1C336,65.4 351.9,66.5 366.1,66.6C368.4,66.7 370.7,66.7 373.1,66.7C377.6,66.7 382.1,66.7 386.6,66.7C387.1,68.9 387,70.1 386.4,72.2C385.6,75 385.2,77.7 385,80.5C388.1,79.4 390.5,77.9 393.1,76C393.5,75.7 393.9,75.4 394.3,75.1C397.5,72.9 400.6,70.6 403.6,68.3C406.9,65.8 410.2,63.5 413.5,61.1C416.3,59.1 419,57.1 421.7,55C421.4,53.2 421.1,52.1 419.8,50.8C419.5,50.5 419.1,50.2 418.8,49.8C418.5,49.5 418.2,49.2 417.8,48.9C417.5,48.5 417.2,48.2 416.8,47.8C413.4,44.4 410,41 406.5,37.7C404.2,35.4 402,33.3 400,30.8C398.9,29.8 398,29.7 396.6,29.5C395.3,32.2 394.8,35 394.2,37.9C394.1,38.6 394.1,38.6 394,39.2C393.9,39.5 393.8,39.9 393.7,40.2C393.3,41.5 392.9,42 391.9,42.7C390.4,42.9 390.4,42.9 388.6,42.9L368.6,42.9C364.8,42.9 361.1,42.9 357.3,42.9L330.1,42.9C328.8,42.9 327.5,42.8 326.1,42.8L312.5,42.8C311.2,42.7 311.2,42.7 310.7,42.2C310.6,37.6 312,32.9 313.1,28.5C313.3,27.6 313.5,26.8 313.6,26C315.1,19.7 316.6,13.5 318.2,7.3C318.4,6.5 318.6,5.6 318.8,4.8C319.7,1.3 319.9,1.4 323.6,1.4Z" style="fill:rgb(253,129,97);fill-rule:nonzero;"/>
    <path d="M1059.2,30.1C1065,33.4 1070.1,38 1072.3,44.5C1072.4,46.4 1072.4,48.2 1072.4,50.2C1072.4,51.9 1072.4,51.9 1072.5,53.8L1072.5,69.9C1072.6,73.5 1072.6,77.1 1072.6,80.5C1072.7,84 1072.7,87.4 1072.7,90.8L1072.7,94.6C1072.7,103.5 1071.7,110.3 1065.3,116.9C1057.7,121.9 1050.7,123.3 1041.6,122.1C1035.3,120.4 1030.6,116.4 1027.3,110.9C1024,103.8 1023.7,97.7 1023.7,89.9L1023.7,86.3C1023.6,83.7 1023.6,81.1 1023.6,78.6L1023.6,59.5C1023.5,58.4 1023.5,57.2 1023.5,56C1023.6,48.4 1024.8,42.5 1029.3,36.3C1037.8,28.2 1048.2,25.1 1059.2,30.1ZM1051.8,39.3C1046.4,38.9 1044,39.1 1039.9,42.7C1036.9,46.5 1036.9,46.5 1036.9,55.5C1036.9,56.7 1037,57.8 1037,59.1C1037,62.8 1037,66.5 1037.1,70.3L1037.1,78.2C1037.2,83.1 1037.2,88 1037.3,93L1037.3,96.3C1037.4,99.5 1037.4,102.6 1038.5,105.8C1041.9,109.4 1043.4,110.7 1048.3,111.4C1052.1,110.9 1053.9,110.3 1056.9,107.8C1060.3,102.9 1060.4,98.6 1060.4,92.9L1060.4,52.9C1060.4,50.2 1060.4,50.2 1060,47.5C1057.8,43.3 1056.1,41.2 1051.8,39.3Z" style="fill:rgb(253,133,101);"/>
    <g>
        <path d="M586.7,28.8C588.7,28.8 590.8,28.7 592.8,28.7C602.2,28.6 608.6,29.7 615.4,36.3C615.9,36.9 616.3,37.6 616.8,38.3C617.5,39.2 617.5,39.2 618.2,40.2C622.4,47.8 622.7,56.4 620.8,64.7C618.9,70.3 616.5,73.4 611.6,76.6C610,78.1 610,78.1 610,80.9C610.3,84.9 611.3,88.4 612.7,92.1C613,93 613.2,93.7 613.5,94.4C614.3,96.7 615,99.1 615.8,101.3L618.3,108.4L619.8,112.7C620.7,115.6 621.4,118 621.4,121.2L608.2,121.2C596.9,84.4 596.9,84.4 596.9,80.3L586.7,80.3L586.7,83.9C586.8,88.4 586.8,92.7 586.8,97.2L586.8,113.9C586.8,116 586.8,118 586.7,120.1C585.7,121.2 585.7,121.2 583.2,121.3L577,121.3C574.4,121.2 574.4,121.2 573.4,120.1C573.3,117.3 573.3,114.5 573.3,111.8L573.3,35.9C573.3,26.5 578.4,28.9 586.7,28.8ZM586.7,40.4L586.7,70C601,70 601,70 604.1,68C607,64.9 608.1,63.1 608.5,58.9C608.6,51.9 608.3,48 603.8,42.6C600,40.4 600,40.4 586.7,40.4Z" style="fill:rgb(244,244,245);stroke:rgb(244,244,245);stroke-width:1px;"/>
        <path d="M742,28.7C743.1,28.7 744.1,28.6 745.2,28.6C746.3,28.7 747.2,28.9 748.2,29.1C751.7,34.1 754,39.7 756.6,45.1C757.1,46.1 757.5,47 758,48.1C758.7,49.5 758.7,49.5 759.3,50.9C759.7,51.7 760.2,52.6 760.7,53.5C761.5,55.7 761.5,55.7 761.5,58.8L763.5,58.8C763.6,58.1 763.8,57.3 763.9,56.5C764.5,53.6 765.6,51.1 766.8,48.3C767.3,47.3 767.7,46.3 768.2,45.3C768.9,43.8 768.9,43.8 769.7,42.2C770.1,41.2 770.6,40.2 771,39.1C774.6,31.4 774.6,31.4 776.8,29.1C779.7,28.8 779.7,28.8 783,28.9L786.4,28.9C789.1,29.1 789.1,29.1 790.1,30.2C790.2,32.9 790.3,35.7 790.3,38.6L790.3,68.6C790.2,74 790.3,79.4 790.3,84.9L790.3,114.3C790.2,120 790.2,120 789.1,121.1L776.8,121.1C776.5,99.9 776.2,78.6 775.8,56.7C772.1,64.5 768.4,72.3 764.5,80.3C764.2,80.9 763.9,81.6 763.5,82.3C760.5,81.3 760.5,81.3 759.1,79C758.6,78 758.2,77 757.7,76C757.2,74.9 756.8,73.9 756.3,72.8C755.8,71.7 755.2,70.5 754.6,69.4C754.1,68.3 753.6,67.2 753.1,66C751.8,63.3 750.5,60.5 749.2,57.8L749.2,60.1C749.1,67.5 749,74.7 748.9,82.1C748.8,85.9 748.8,89.7 748.7,93.3C748.7,97 748.6,100.6 748.6,104.3C748.6,105.7 748.5,107 748.5,108.5C748.5,110.4 748.5,112.3 748.4,114.3L748.4,117.6C748.2,120.1 748.2,120.1 747.2,121.1C745.3,121.2 743.5,121.2 741.5,121.2L738.5,121.2C735.9,121.1 735.9,121.1 734.9,120.1C734.8,117.3 734.8,114.5 734.8,111.7L734.8,36C734.8,29.1 735.2,28.9 742,28.7Z" style="fill:rgb(244,244,245);fill-rule:nonzero;stroke:rgb(244,244,245);stroke-width:1px;"/>
        <path d="M478.4,29.1C512,29.1 512,29.1 519.7,36.6C525.4,43.5 526.1,51.1 525.8,59.8C525.1,66.9 522.5,72.4 517.2,77.2C508,83.3 503.7,81.3 490.6,81.3L490.6,121.1L478.4,121.1L478.4,29.1ZM490.6,40.4L490.6,71L503.9,71C509.3,67.9 510.3,67.5 512.1,61.8C512.7,55.1 513.4,49 509,43.4C503.9,40.4 503.9,40.4 490.6,40.4Z" style="fill:rgb(244,244,245);stroke:rgb(244,244,245);stroke-width:1px;"/>
        <path d="M849.8,29L878.7,29C885,29 885,29 886.2,30.1L886.2,40.3L855.6,40.3L855.6,68.9C861.9,68.9 861.9,68.9 868.3,68.8L873.1,68.8C875,68.9 875,68.9 876,70L876,80.2L855.6,80.2L855.6,109.8L886.2,109.8L886.2,120C885.2,121.1 885.2,121.1 881.1,121.3C879.3,121.3 877.5,121.2 875.7,121.2L857.4,121.2C852.4,121.2 847.3,121.2 842.3,121.1C842.2,109.3 842.2,97.5 842.2,85.6L842.2,47.1C842.1,44.3 842.1,41.5 842.1,38.6L842.1,36C842.1,28.9 842.6,29 849.8,29Z" style="fill:rgb(244,244,245);fill-rule:nonzero;stroke:rgb(244,244,245);stroke-width:1px;"/>
        <rect x="670.5" y="29.1" width="12.3" height="92" style="fill:rgb(244,244,245);fill-rule:nonzero;stroke:rgb(244,244,245);stroke-width:1px;"/>
    </g>
    <path d="M1161.9,32.9C1167.6,38.7 1169.7,42.7 1169.7,51.1C1169.6,53.3 1169.5,55.5 1169.3,57.7L1157,57.7C1156.9,55.4 1156.9,55.4 1156.7,52.9C1156.3,48.7 1155.8,45.8 1152.9,42.4C1149.7,40 1146.7,39.9 1142.7,40.4C1138.9,42.2 1138.9,42.2 1136.6,45.5C1136.5,47.3 1136.5,49.1 1136.5,51L1136.5,54.5C1136.5,55.7 1136.5,56.9 1136.4,58.2L1136.4,80.6C1136.3,83.9 1136.3,87.3 1136.3,90.5L1136.3,101C1136.7,104.2 1137.7,106.2 1139.6,108.8C1142.8,110.4 1145.5,110.1 1148.8,109.9C1152.5,108.2 1153.8,107.1 1156,103.7C1156.4,101.6 1156.4,101.6 1156.5,99.2C1156.5,97.9 1156.5,97.9 1156.6,96.6C1156.6,95.6 1156.6,94.7 1156.7,93.8C1156.7,92.9 1156.8,92 1156.8,91C1156.9,88.8 1157,86.6 1157,84.3L1154.9,84.3C1153.9,84.4 1153,84.4 1152,84.4L1149.1,84.4C1146.8,84.3 1146.8,84.3 1145.8,83.3C1145.8,81.7 1145.7,80.2 1145.7,78.7L1145.7,76.1C1145.8,74.1 1145.8,74.1 1146.8,73.1C1148.5,73 1150.2,73 1151.9,73L1158.1,73C1159.8,73.1 1159.8,73.1 1161.4,73.1L1169.3,73.1C1169.5,77.9 1169.6,82.7 1169.6,87.5C1169.6,89.1 1169.7,90.7 1169.7,92.4C1170.2,108.7 1170.2,108.7 1165.6,114.6C1160,120.2 1153.8,122.4 1146.1,122.6C1138.4,122.4 1133.5,120.7 1127.9,115.6C1123.3,110.6 1122,105.3 1122,98.6C1122,97.5 1122,96.3 1122,95L1122,79C1122,75.4 1122,71.9 1121.8,68.4L1121.8,58.2C1121.8,57 1121.8,55.7 1121.7,54.5C1121.8,46.4 1122.6,40.3 1128.4,34.2C1139.4,26.7 1150.2,25.7 1161.9,32.9Z" style="fill:rgb(253,134,103);fill-rule:nonzero;"/>
    <path d="M5.1,115.2L25.8,115.2C30.6,115.2 35.3,115.1 40.1,115.1L90.1,115.1C91.6,115.2 91.6,115.2 92.7,116.2C92.9,117.7 92.9,118.5 92.2,119.7C90.6,120.7 89.4,120.5 87.5,120.5L80.1,120.5C77.7,120.6 75.3,120.5 72.9,120.5L18.2,120.5C15.9,120.6 13.6,120.5 11.2,120.5L3.1,120.5C1.5,120.3 1.5,120.3 0.5,119.7C-0.1,118.8 -0.1,118.8 0.1,117.2C0.2,116.7 0.4,116.2 0.5,115.7C2,115 3.4,115.2 5.1,115.2Z" style="fill:rgb(106,191,191);fill-rule:nonzero;"/>
    <path d="M936.3,29.1L948.5,29.1L948.5,109.9L979.2,109.9L979.2,121.1L936.3,121.1L936.3,29.1Z" style="fill:rgb(253,133,99);fill-rule:nonzero;"/>
    <path d="M23.1,133L86.3,133C87.5,133.1 87.5,133.1 88.5,134.1C88.7,135.4 88.7,135.4 88.5,136.7C87.5,137.7 87.5,137.7 86.3,137.8L73.7,137.8C71.8,137.8 69.9,137.8 68,137.8L45.1,137.8C36.6,137.7 28.3,137.7 19.9,137.7C19.6,136 19.6,136 19.3,134.1C20.7,132.8 21.2,133 23.1,133Z" style="fill:rgb(253,215,191);fill-rule:nonzero;"/>
    <path d="M40,97.2L94.3,97.2C95.3,97.4 95.3,97.4 96.4,98.4C96.5,99.7 96.5,99.7 96.4,101C95.1,102.2 94.7,102.1 93,102.1L38.2,102.1C37.2,102 37.2,102 36.1,101C36.4,98.2 37.2,97.2 40,97.2Z" style="fill:rgb(253,130,98);fill-rule:nonzero;"/>
    <path d="M855.5,69C858.7,69 862,69 865.1,68.9L873,68.9C875,69 875,69 876,70L876,80.2L855.5,80.2L855.5,79.2L873.9,79.2L873.9,71L855.5,71L855.5,69Z" style="fill:rgb(244,244,245);fill-rule:nonzero;"/>
    <path d="M608.2,117C608.5,117.7 608.9,118.4 609.2,119.1L619.4,119.1C619.7,118.4 620.1,117.7 620.5,117C620.8,118.4 621.2,119.7 621.5,121.1L608.2,121.1L608.2,117Z" style="fill:rgb(244,244,245);fill-rule:nonzero;"/>
</svg>
